<?xml version="1.0" encoding="utf-8"?>
<!-- Generator: Adobe Illustrator 19.2.0, SVG Export Plug-In . SVG Version: 6.00 Build 0)  -->
<svg version="1.1" id="Layer_1" xmlns="http://www.w3.org/2000/svg" xmlns:xlink="http://www.w3.org/1999/xlink" x="0px" y="0px"
	 viewBox="0 0 383.6 47.8" style="enable-background:new 0 0 383.6 47.8;" xml:space="preserve">
<g>
	<path d="M29.7,18c0,2.4-1.1,4.3-3.3,5.8c2.2,1.5,3.3,3.4,3.3,5.8v10.7c0,4.6-3.2,7.5-7.7,7.5H0c1.5,0,2.3-0.8,2.3-2.3V2.2
		c0-1.5-0.8-2.3-2.3-2.3h22c4.5,0,7.7,2.9,7.7,7.5V18z M20.6,17.1v-6.2c0-1.3-0.7-2-2-2h-5.2c-1.3,0-2,0.7-2,2v6.2c0,1.3,0.7,2,2,2
		h5.2C19.9,19.1,20.6,18.4,20.6,17.1z M20.6,36.8v-6.2c0-1.3-0.7-2-2-2h-5.2c-1.3,0-2,0.7-2,2v6.2c0,1.3,0.7,2,2,2h5.2
		C19.9,38.8,20.6,38.1,20.6,36.8z"/>
	<path d="M62,47.8l-22.2,0c-5.2,0-7.8-2.5-7.8-7.6V29.5c0-10.6,18.3-5.8,18.3-15.2v-3.5c0-1.3-0.7-2-2-2h-5.1c-1.3,0-2,0.7-2,2v1.6
		c0,1.9-1.1,3-3.3,3.3h-8.2c1.5,0,2.3-0.8,2.3-2.3V7.4c0-5,2.6-7.5,7.8-7.5h12c5.2,0,7.8,2.5,7.8,7.5v38.1
		C59.6,47,60.4,47.8,62,47.8z M50.3,36.7V26.6c-2.9,1-9.1,2.7-9.1,6.7v3.5c0,1.3,0.7,2,2,2h5.1C49.7,38.7,50.3,38.1,50.3,36.7z"/>
	<path d="M102.8,15.9h-8.2c-2.1,0-3.2-1.1-3.2-3.2v-1.9c0-1.3-0.7-2-2-2H87c-1.3,0-2,0.7-2,2v34.6c0,1.5,0.8,2.3,2.3,2.3H73.6
		c1.5,0,2.3-0.8,2.3-2.3V10.8c0-1.3-0.7-2-2-2h-2.4c-1.3,0-2,0.7-2,2v1.9c0,2.1-1.1,3.2-3.2,3.2H58c1.6,0,2.3-0.8,2.3-2.3V7.6
		c0-5.1,2.5-7.6,7.6-7.6h24.9c5.1,0,7.6,2.5,7.6,7.6v6.1C100.5,15.2,101.3,15.9,102.8,15.9z"/>
	<path d="M131.3,47.8l-22.2,0c-5.2,0-7.8-2.5-7.8-7.6V29.5c0-10.6,18.3-5.8,18.3-15.2v-3.5c0-1.3-0.7-2-2-2h-5.1c-1.3,0-2,0.7-2,2
		v1.6c0,1.9-1.1,3-3.3,3.3H99c1.5,0,2.3-0.8,2.3-2.3V7.4c0-5,2.6-7.5,7.8-7.5h12c5.2,0,7.8,2.5,7.8,7.5v38.1
		C128.9,47,129.7,47.8,131.3,47.8z M119.6,36.7V26.6c-2.9,1-9.1,2.7-9.1,6.7v3.5c0,1.3,0.7,2,2,2h5.1
		C119,38.7,119.6,38.1,119.6,36.7z"/>
	<path d="M173.6,32.3c-1.6,0-2.3,0.8-2.3,2.3v5.5c0,5.1-2.5,7.6-7.6,7.6h-12.1c-5.1,0-7.7-2.5-7.7-7.6V2c0-1.4-0.8-2.2-2.3-2.2h7.8
		c2.4,0,3.6,1,3.6,3v33.8c0,1.3,0.7,2,2,2h5.2c1.3,0,2-0.7,2-2v-1.2c0-2.1,1.2-3.2,3.6-3.2H173.6z"/>
	<path d="M204.7,7.4v32.7c0,5.1-2.5,7.6-7.6,7.6h-15.2c-5.1,0-7.6-2.5-7.6-7.6V7.4c0-5,2.5-7.5,7.6-7.5h15.2
		C202.2-0.1,204.7,2.4,204.7,7.4z M195.6,36.5V10.9c0-1.3-0.7-2-2-2h-8.2c-1.3,0-2,0.7-2,2v25.7c0,1.3,0.7,2,2,2h8.2
		C194.9,38.5,195.6,37.9,195.6,36.5z"/>
	<path d="M241.6,7.4v32.7c0,5.1-2.5,7.6-7.6,7.6h-15.2c-5.1,0-7.6-2.5-7.6-7.6V7.4c0-5,2.5-7.5,7.6-7.5H234
		C239.1-0.1,241.6,2.4,241.6,7.4z M232.5,36.5V10.9c0-1.3-0.7-2-2-2h-8.2c-1.3,0-2,0.7-2,2v25.7c0,1.3,0.7,2,2,2h8.2
		C231.8,38.5,232.5,37.9,232.5,36.5z"/>
	<path d="M275.5,15.7c0,10.9-18.3,9.4-18.3,18.6v10.4c0,2.1-1.1,3.2-3.2,3.2h-8.2c1.5,0,2.3-0.8,2.3-2.3V2.2c0-1.5-0.8-2.3-2.3-2.3
		h22c4.5,0,7.7,2.9,7.7,7.5V15.7z M266.4,14.2v-3.3c0-1.3-0.7-2-2-2h-5.2c-1.3,0-2,0.7-2,2v10.5C263.3,18.5,266.4,16,266.4,14.2z"/>
	<path d="M317.9,15.7c0,10.9-18.3,9.4-18.3,18.6v10.4c0,2.1-1.1,3.2-3.2,3.2h-8.2c1.5,0,2.3-0.8,2.3-2.3V2.2c0-1.5-0.8-2.3-2.3-2.3
		h22c4.5,0,7.7,2.9,7.7,7.5V15.7z M308.8,14.2v-3.3c0-1.3-0.7-2-2-2h-5.2c-1.3,0-2,0.7-2,2v10.5C305.7,18.5,308.8,16,308.8,14.2z"/>
	<path d="M349.9,47.8l-22.2,0c-5.2,0-7.8-2.5-7.8-7.6V29.5c0-10.6,18.3-5.8,18.3-15.2v-3.5c0-1.3-0.7-2-2-2h-5.1c-1.3,0-2,0.7-2,2
		v1.6c0,1.9-1.1,3-3.3,3.3h-8.2c1.5,0,2.3-0.8,2.3-2.3V7.4c0-5,2.6-7.5,7.8-7.5h12c5.2,0,7.8,2.5,7.8,7.5v38.1
		C347.4,47,348.3,47.8,349.9,47.8z M338.2,36.7V26.6c-2.9,1-9.1,2.7-9.1,6.7v3.5c0,1.3,0.7,2,2,2h5.1
		C337.5,38.7,338.2,38.1,338.2,36.7z"/>
	<path d="M383.6,0c-1.6,0-2.4,0.8-2.4,2.3v12.9c0,3.3-1,5.5-3.1,6.6c2.1,1.2,3.1,3.4,3.1,6.7v17c0,1.5,0.8,2.3,2.3,2.3h-8.2
		c-2.1,0-3.2-1.1-3.2-3.2v-15c0-1.2-0.6-2.6-2-2l-5.2,2.2c-1.3,0.7-1.9,1.6-1.9,2.7v12.1c0,2.1-1.1,3.2-3.2,3.2h-8.2
		c1.5,0,2.3-0.8,2.3-2.3V2.3c0-1.5-0.8-2.3-2.3-2.3h8.2c2.1,0,3.2,1.1,3.2,3.2v16.3c6.1-1.9,9.2-4.4,9.2-7.5V3.2
		c0-2.1,1.1-3.2,3.2-3.2H383.6z"/>
</g>
</svg>
